<?xml version="1.0" encoding="UTF-8"?>
<svg id="Layer_1" data-name="Layer 1" xmlns="http://www.w3.org/2000/svg" xmlns:xlink="http://www.w3.org/1999/xlink" viewBox="0 0 547.94 635.33">
  <defs>
    <style>
      .cls-1 {
        fill: url(#linear-gradient);
        stroke: url(#linear-gradient-2);
      }

      .cls-1, .cls-2, .cls-3, .cls-4 {
        stroke-miterlimit: 10;
        stroke-width: 5px;
      }

      .cls-5, .cls-2, .cls-4 {
        fill: #f2efeb;
      }

      .cls-2 {
        fill-rule: evenodd;
      }

      .cls-2, .cls-3, .cls-4 {
        stroke: #f2efeb;
      }

      .cls-3 {
        fill: none;
      }
    </style>
    <linearGradient id="linear-gradient" x1="252.09" y1="443.89" x2="252.09" y2="480.34" gradientTransform="translate(0 636.33) scale(1 -1)" gradientUnits="userSpaceOnUse">
      <stop offset="0" stop-color="#fff"/>
      <stop offset=".04" stop-color="#fafafa"/>
      <stop offset=".09" stop-color="#ebebeb"/>
      <stop offset=".15" stop-color="#d2d2d2"/>
      <stop offset=".2" stop-color="#afafaf"/>
      <stop offset=".27" stop-color="#838383"/>
      <stop offset=".33" stop-color="#4c4c4c"/>
      <stop offset=".39" stop-color="#0d0d0d"/>
      <stop offset=".41" stop-color="#000"/>
    </linearGradient>
    <linearGradient id="linear-gradient-2" x1="252.09" y1="440.4" x2="252.09" y2="478.73" gradientTransform="translate(0 636.33) scale(1 -1)" gradientUnits="userSpaceOnUse">
      <stop offset="0" stop-color="#fff"/>
      <stop offset=".43" stop-color="#f2efeb"/>
    </linearGradient>
  </defs>
  <g>
    <path class="cls-5" d="m314.06,439.06c-.08,3.21-.2,6.42-.34,9.63.27.69.42,1.47.42,2.36-.04,8.52-.54,17.02-.66,25.54-.05,3.63-.07,7.25-.31,10.84l45.48,45.48c.12-2.63.12-5.38.25-8,.38-11.38.75-23.13.75-34.75,0-1.63.38-3.13,1.13-4.38l-46.71-46.71Z"/>
    <path class="cls-5" d="m363.57,484.2l-17.93-17.93-31.43-31.43c-.05,1.12-.11,2.25-.13,3.38-.04,1.66-.09,3.31-.15,4.97l43.34,43.34c-.38,1.13-.5,2.38-.5,3.63,0,11.5-.38,23.25-.75,34.63v.88l-42.65-42.65c-.08,2.84-.24,5.66-.6,8.46l48.88,48.82c.5-16.63,1.25-33.38,1.25-50.01,0-1.22.29-2.22.77-3.05,0-.28.01-.56.02-.84-.11-.73-.14-1.45-.12-2.19Z"/>
  </g>
  <path class="cls-5" d="m126.02,159.27c52.88,0,96.01,43.13,96.01,96.01s-43.13,96.01-96.01,96.01-96.01-43.13-96.01-96.01,43.13-96.01,96.01-96.01m0-30C56.38,129.27,0,185.65,0,255.28s56.38,126.02,126.02,126.02,126.02-56.38,126.02-126.02-56.38-126.02-126.02-126.02h0Z"/>
  <path class="cls-3" d="m313.79,195.52c-2.5,133.39-.88,266.78,4.75,400.17,0,19.38-15.75,35.13-35.13,35.13h0c-19.38,0-35.13-15.75-35.13-35.13,2.5-73.13,3.88-147.64,4.5-219.53"/>
  <path class="cls-3" d="m251.78,157.64c-.75-44.01-2-84.51-3.5-120.01,0-19.38,15.75-35.13,35.13-35.13h0c19.38,0,35.13,15.75,35.13,35.13-2.25,52.63-3.88,105.26-4.75,157.89"/>
  <path class="cls-1" d="m252.41,195.9c-.13-13-.38-25.75-.63-38.25"/>
  <g>
    <path class="cls-5" d="m146.02,320.04c-6.75-6.75-6.75-17.75,0-24.63,3.38-3.38,7.75-5.13,12.38-5.13s9,1.75,12.25,5.13l81.01,81.01c-.75,1.25-1.13,2.75-1.13,4.38,0,11.63-.38,23.38-.75,34.75-.13,2.63-.13,5.38-.25,8l-103.51-103.51Z"/>
    <path class="cls-5" d="m158.39,293.41c3.75,0,7.38,1.5,10.13,4.13l79.63,79.63c-.38,1.13-.5,2.38-.5,3.63,0,11.5-.38,23.25-.75,34.63v.88l-98.51-98.51c-5.5-5.5-5.5-14.63,0-20.13l.13-.13c2.5-2.63,6.13-4.13,9.88-4.13m0-6.25c-5.25,0-10.5,2-14.5,6l-.13.13c-8,8-8,21,0,29l108.76,108.64c.5-16.63,1.25-33.38,1.25-50.01,0-2.13.88-3.63,2.13-4.63l-83.01-83.01c-4-4.13-9.25-6.13-14.5-6.13h0Z"/>
  </g>
  <path class="cls-4" d="m401.3,324.41c.13,90.76,2,181.4,5.88,272.16,0,19.38-15.75,35.13-35.13,35.13h0c-19.38,0-35.13-15.75-35.13-35.13,3-90.76,4.5-183.77,4.75-271.28"/>
  <path class="cls-3" d="m341.79,325.29c.25-109.14-1.5-209.78-4.75-286.79,0-19.38,15.75-35.13,35.13-35.13h0c19.38,0,35.13,15.75,35.13,35.13-4,95.26-6,190.65-5.88,285.91"/>
  <path class="cls-4" d="m419.43,561.57c26,0,24.38.75,90.89,1,19.38,0,35.13,15.75,35.13,35.13h0c0,19.38-15.75,35.13-35.13,35.13h-77.63c-10,0,.38-.5-31.88-.5,9.75-7,14-13.88,17.25-27,2.5-10,.13-22.25,0-25q-1.13-18.75,1.38-18.75Z"/>
  <path class="cls-2" d="m345.67,326.54c0-14.88,11.63-27.5,26.25-27.5s26.5,12,26.5,26.88"/>
</svg>