<?xml version="1.0" encoding="utf-8"?>
<!-- Generator: Adobe Illustrator 27.5.0, SVG Export Plug-In . SVG Version: 6.00 Build 0)  -->
<svg version="1.1" id="Layer_1" xmlns="http://www.w3.org/2000/svg" xmlns:xlink="http://www.w3.org/1999/xlink" x="0px" y="0px"
	 viewBox="0 0 1366 768" style="enable-background:new 0 0 1366 768;" xml:space="preserve">
<style type="text/css">
	.st0{fill:none;stroke:#000000;stroke-width:5;stroke-miterlimit:10;}
	
		.st1{fill:url(#SVGID_1_);stroke:url(#SVGID_00000124864214785927553700000009444024240125572778_);stroke-width:5;stroke-miterlimit:10;}
	.st2{stroke:#000000;stroke-width:5;stroke-miterlimit:10;}
	.st3{fill-rule:evenodd;clip-rule:evenodd;stroke:#000000;stroke-width:5;stroke-miterlimit:10;}
</style>
<g>
	<g>
		<path d="M694.8,491c-0.1,3.2-0.2,6.4-0.3,9.6c0.3,0.7,0.4,1.5,0.4,2.4c0,8.5-0.5,17-0.7,25.5c-0.1,3.6-0.1,7.2-0.3,10.8l45.5,45.5
			c0.1-2.6,0.1-5.4,0.3-8c0.4-11.4,0.8-23.1,0.8-34.8c0-1.6,0.4-3.1,1.1-4.4L694.8,491z"/>
		<path d="M744.3,536.1l-17.9-17.9L695,486.8c-0.1,1.1-0.1,2.2-0.1,3.4c0,1.7-0.1,3.3-0.1,5l43.3,43.3c-0.4,1.1-0.5,2.4-0.5,3.6
			c0,11.5-0.4,23.3-0.8,34.6v0.9l-42.7-42.7c-0.1,2.8-0.2,5.7-0.6,8.5l48.9,48.8c0.5-16.6,1.3-33.4,1.3-50c0-1.2,0.3-2.2,0.8-3.1
			c0-0.3,0-0.6,0-0.8C744.3,537.6,744.3,536.9,744.3,536.1z"/>
	</g>
	<g>
		<path d="M506.8,211.2c52.9,0,96,43.1,96,96s-43.1,96-96,96s-96-43.1-96-96S453.9,211.2,506.8,211.2 M506.8,181.2
			c-69.6,0-126,56.4-126,126s56.4,126,126,126s126-56.4,126-126S576.4,181.2,506.8,181.2L506.8,181.2z"/>
	</g>
	<path class="st0" d="M694.5,247.5c-2.5,133.4-0.9,266.8,4.8,400.2c0,19.4-15.8,35.1-35.1,35.1l0,0c-19.4,0-35.1-15.8-35.1-35.1
		c2.5-73.1,3.9-147.6,4.5-219.5"/>
	<path class="st0" d="M632.5,209.6c-0.8-44-2-84.5-3.5-120c0-19.4,15.8-35.1,35.1-35.1l0,0c19.4,0,35.1,15.8,35.1,35.1
		c-2.3,52.6-3.9,105.3-4.8,157.9"/>
	
		<linearGradient id="SVGID_1_" gradientUnits="userSpaceOnUse" x1="632.5938" y1="539.2872" x2="633.1893" y2="539.2872" gradientTransform="matrix(1 0 0 -1 0 768)">
		<stop  offset="0" style="stop-color:#FFFFFF"/>
		<stop  offset="0.4279" style="stop-color:#000000"/>
	</linearGradient>
	
		<linearGradient id="SVGID_00000159470607357891459940000017120444621579003549_" gradientUnits="userSpaceOnUse" x1="632.85" y1="520.1358" x2="632.85" y2="558.4645" gradientTransform="matrix(1 0 0 -1 0 768)">
		<stop  offset="0" style="stop-color:#FFFFFF"/>
		<stop  offset="4.106054e-02" style="stop-color:#FAFAFA"/>
		<stop  offset="9.123646e-02" style="stop-color:#EBEBEB"/>
		<stop  offset="0.1462" style="stop-color:#D2D2D2"/>
		<stop  offset="0.2045" style="stop-color:#AFAFAF"/>
		<stop  offset="0.2655" style="stop-color:#838383"/>
		<stop  offset="0.3289" style="stop-color:#4C4C4C"/>
		<stop  offset="0.3929" style="stop-color:#0D0D0D"/>
		<stop  offset="0.4056" style="stop-color:#000000"/>
	</linearGradient>
	
		<path style="fill:url(#SVGID_1_);stroke:url(#SVGID_00000159470607357891459940000017120444621579003549_);stroke-width:5;stroke-miterlimit:10;" d="
		M633.2,247.8c-0.1-13-0.4-25.8-0.6-38.3"/>
	<g>
		<path d="M526.8,372c-6.8-6.8-6.8-17.8,0-24.6c3.4-3.4,7.8-5.1,12.4-5.1s9,1.8,12.3,5.1l81,81c-0.8,1.3-1.1,2.8-1.1,4.4
			c0,11.6-0.4,23.4-0.8,34.8c-0.1,2.6-0.1,5.4-0.3,8L526.8,372z"/>
		<path d="M539.2,345.4c3.8,0,7.4,1.5,10.1,4.1l79.6,79.6c-0.4,1.1-0.5,2.4-0.5,3.6c0,11.5-0.4,23.3-0.8,34.6c0,0.3,0,0.5,0,0.9
			l-98.5-98.5c-5.5-5.5-5.5-14.6,0-20.1l0.1-0.1C531.8,346.9,535.4,345.4,539.2,345.4 M539.2,339.1c-5.3,0-10.5,2-14.5,6l-0.1,0.1
			c-8,8-8,21,0,29l108.8,108.6c0.5-16.6,1.3-33.4,1.3-50c0-2.1,0.9-3.6,2.1-4.6l-83-83C549.7,341.1,544.4,339.1,539.2,339.1
			L539.2,339.1z"/>
	</g>
	<path class="st2" d="M782.1,376.4c0.1,90.8,2,181.4,5.9,272.2c0,19.4-15.8,35.1-35.1,35.1l0,0c-19.4,0-35.1-15.8-35.1-35.1
		c3-90.8,4.5-183.8,4.8-271.3"/>
	<path class="st0" d="M722.5,377.2c0.3-109.1-1.5-209.8-4.8-286.8c0-19.4,15.8-35.1,35.1-35.1l0,0c19.4,0,35.1,15.8,35.1,35.1
		c-4,95.3-6,190.6-5.9,285.9"/>
	<path class="st2" d="M800.2,613.5c26,0,24.4,0.8,90.9,1c19.4,0,35.1,15.8,35.1,35.1l0,0c0,19.4-15.8,35.1-35.1,35.1
		c-34.6,0-57.1,0-77.6,0c-10,0,0.4-0.5-31.9-0.5c9.8-7,14-13.9,17.3-27c2.5-10,0.1-22.3,0-25C797.7,613.5,797.7,613.5,800.2,613.5z"
		/>
	<g>
		<path class="st0" d="M783.9,368.5"/>
	</g>
	<g>
		<path class="st0" d="M723.9,368.5"/>
	</g>
	<path class="st0" d="M782.7,368.5"/>
	<path class="st0" d="M723.9,368.5"/>
	<path class="st3" d="M726.4,378.5c0-14.9,11.6-27.5,26.3-27.5s26.5,12,26.5,26.9"/>
</g>
</svg>
