<?xml version="1.0" encoding="utf-8"?>
<!-- Generator: Adobe Illustrator 27.4.0, SVG Export Plug-In . SVG Version: 6.00 Build 0)  -->
<svg version="1.1" id="Layer_1" xmlns="http://www.w3.org/2000/svg" xmlns:xlink="http://www.w3.org/1999/xlink" x="0px" y="0px"
	 viewBox="0 0 1920 1080" style="enable-background:new 0 0 1920 1080;" xml:space="preserve">
<style type="text/css">
	.st0{fill:#231F20;}
	.st1{font-family:'LucidaFax';}
	.st2{font-size:172.479px;}
	.st3{fill:none;stroke:#231F20;stroke-width:2;stroke-miterlimit:10;}
	.st4{fill:#231F20;stroke:#231F20;stroke-width:2;stroke-miterlimit:10;}
</style>
<text transform="matrix(1 0 0 1 375.513 887.8817)" class="st0 st1 st2">Quinn Lutters</text>
<path class="st3" d="M1355.5,539.2"/>
<path class="st3" d="M542.2,660.2"/>
<path class="st3" d="M192.3,799.8"/>
<path class="st4" d="M112,844.9c60-39.7,370.6-332.9,435-289.5c71.1,48,203.4-152.9,244.1-183.6c40.7-30.7,78.9,0,110-70.1
	c60-135.5,70.7-82.4,143.2,47.1C1141,521.5,1208.2,460,1208.2,460c93-57.3,187.9,136.9,270.9,259.7c1.4,2.1-147-214.4-248.7-217.9
	c-213.9-7.5-186.1-123.4-261.9-133.2c-58.3-7.5-149,23.3-194.7,74.1C593,643.9,559.1,635.8,525.8,613.5
	C456.6,567.2,105.9,848.9,112,844.9z"/>
<path class="st4" d="M460.8,730.1c-37.7,9.7,104-20.1,217.2-85.4c29.3-16.9,95.1,70.7,144.8,58.6c73.2-17.9,150.8-173.8,177.4-220.5
	c1.2-2.1,23.2,6,18.7,11.4C957,567.9,873.3,765.9,839.5,749.7C666.7,666.6,718.5,663.9,460.8,730.1z"/>
<path class="st4" d="M1807.4,844.9c-54.8-77.6-87.2-119.1-229.7-322.3c-29.6-42.2-74.3-24.5-111.2-58.6
	c-139.8-129-146.8-274-189.9-334.2c-24.4-34.2-84,85.6-186.1,202.3c-0.6,0.7,8.6,22.8,17.4,15.2c36.3-31.8,51-62.4,88.4-95.5
	c40-35.4,59-32.3,67.9-29.5c35.2,11.1,33.9,135.1,145.3,256.3c42.6,46.3,64.7,45,134.5,100.9
	C1718.3,719.1,1817.4,859.1,1807.4,844.9z"/>
</svg>
