<?xml version="1.0" encoding="utf-8"?>
<!-- Generator: Adobe Illustrator 27.4.0, SVG Export Plug-In . SVG Version: 6.00 Build 0)  -->
<svg version="1.1" id="Layer_1" xmlns="http://www.w3.org/2000/svg" xmlns:xlink="http://www.w3.org/1999/xlink" x="0px" y="0px"
	 viewBox="0 0 1920 1080" style="enable-background:new 0 0 1920 1080;" xml:space="preserve">
<style type="text/css">
	.st0{fill:#231F20;stroke:#231F20;stroke-width:2;stroke-miterlimit:10;}
</style>
<path class="st0" d="M55.1,924.2c64-42.4,395.5-355.2,464.2-308.9c75.9,51.2,217-163.2,260.5-195.9c43.4-32.8,84.2,0,117.4-74.8
	c64-144.6,75.4-87.9,152.8,50.3c103.2,184.3,174.9,118.7,174.9,118.7c99.2-61.1,200.5,146.1,289.1,277.1
	c1.5,2.2-156.9-228.8-265.4-232.5c-228.2-8-198.6-131.7-279.5-142.1c-62.2-8-159,24.9-207.8,79.1C568.4,709.7,532.2,701,496.7,677.2
	C422.8,627.8,48.6,928.4,55.1,924.2z" />
<path class="st0" d="M427.3,801.7c-40.2,10.4,111-21.4,231.8-91.1c31.3-18,101.5,75.4,154.5,62.5c78.1-19.1,160.9-185.5,189.3-235.3
	c1.3-2.2,24.8,6.4,20,12.2c-66.1,78.6-155.4,289.9-191.4,272.6C647,733.9,702.3,731,427.3,801.7z"/>
<path class="st0" d="M1864.2,924.2c-58.5-82.8-93-127.1-245.1-343.9c-31.6-45-79.3-26.1-118.7-62.5
	c-149.2-137.7-156.6-292.4-202.6-356.6c-26-36.5-89.6,91.3-198.6,215.9c-0.6,0.7,9.2,24.3,18.6,16.2c38.7-33.9,54.4-66.6,94.3-101.9
	c42.7-37.8,63-34.5,72.5-31.5c37.6,11.8,36.2,144.2,155,273.5c45.5,49.4,69,48,143.5,107.7C1769.2,789.9,1874.9,939.3,1864.2,924.2z
	"/>
</svg>
